<?xml version="1.0" encoding="UTF-8" standalone="no"?>
<!DOCTYPE svg PUBLIC "-//W3C//DTD SVG 1.1//EN" "http://www.w3.org/Graphics/SVG/1.1/DTD/svg11.dtd">
<svg width="100%" height="100%" viewBox="0 0 407 407" version="1.1" xmlns="http://www.w3.org/2000/svg" xmlns:xlink="http://www.w3.org/1999/xlink" xml:space="preserve" xmlns:serif="http://www.serif.com/" style="fill-rule:evenodd;clip-rule:evenodd;stroke-linejoin:round;stroke-miterlimit:2;">
    <g transform="matrix(1.333333,0,0,1.333333,0,-477.333333)">
        <g id="Artboard1" transform="matrix(0.305,0,0,0.305,0,358)">
            <rect x="0" y="0" width="1000" height="1000" style="fill:none;"/>
            <g transform="matrix(2.995515,0,0,1.290787,-121.101024,-105.118618)">
                <g transform="matrix(1.485884,0,0,3.448276,-49.034175,-213.793103)">
                    <path d="M237.905,114.557C237.415,115.998 237.287,115.951 237.089,117.464C236.759,119.984 236.502,119.916 236.118,122.437C235.644,125.545 235.252,125.444 234.928,128.543C234.783,129.933 234.373,130.439 234.076,132.456C233.943,133.364 232.381,141.198 232.272,141.36C231.401,142.652 230.531,141.717 230.43,141.608C230.043,141.193 226.317,137.191 225.476,136.529C223.474,134.95 223.081,136.116 216.698,142.69C187.137,173.134 177.552,183.738 174.643,186.658C173.217,188.089 172.713,187.372 168.651,183.347C166.301,181.019 165.623,179.898 164.497,179.874C163.498,179.852 162.504,181.009 156.409,187.416C154.554,189.366 153.083,190.457 153.179,191.613C153.293,192.992 154.018,192.21 157.503,192.196C184.523,192.082 184.496,192.331 211.497,192.218C218.086,192.19 219.702,192.777 219.741,189.505C219.786,185.743 220.192,182.876 216.498,182.954C212.083,183.047 214.01,185.404 213.384,187.461C212.988,188.76 212.474,188.711 202.5,188.622C198.745,188.588 199.144,187.299 199.152,184.489C199.17,178.463 199.17,178.497 199.154,172.498C199.14,167.331 198.589,166.867 202.209,163.205C212.263,153.032 212.301,152.176 213.203,152.856C213.679,153.214 213.523,155.287 213.507,155.5C213.364,157.402 213.291,174.449 213.574,175.477C214.363,178.339 221.756,174.743 224.547,179.469C227.735,184.868 223.927,191.473 227.444,193.585C236.203,198.843 232.901,207.391 233.586,212.491C234.049,215.939 238.51,213.389 240.748,219.404C241.17,220.537 241.145,220.566 241.114,234.506C241.096,242.892 237.738,242.172 234.695,243.847C230.774,246.007 238.472,260.171 227.397,266.317C225.712,267.252 191.324,278.226 177.601,282.813C166.938,286.377 166.72,286.71 162.606,285.205C114.021,267.437 114.022,267.459 112.378,266.809C102.711,262.989 104.026,256.255 104.031,250.497C104.083,192.503 103.824,192.502 104.047,187.465C104.171,184.644 106.861,180.636 107.83,179.87C112.15,176.46 113.332,176.707 123.497,176.76C126.627,176.776 127.02,177.387 126.91,180.516C126.789,183.956 124.643,182.678 116.48,183.029C111.264,183.254 111.051,188.741 113.76,191.199C114.834,192.174 114.991,192.303 132.5,192.216C136.391,192.197 136.529,192.022 139.227,189.235C139.54,189.618 139.693,190.116 140.006,190.5C140.405,190.99 140.921,191.372 141.348,191.838C141.504,192.007 142.493,193.086 144.212,192.1C144.404,191.99 144.357,191.957 146.213,190.189C146.751,189.676 149.155,186.979 149.551,186.597C154.52,181.802 154.399,181.378 157.367,178.344C161.778,173.834 163.753,170.734 165.624,172.31C170.55,176.46 172.185,180.132 174.376,178.34C175.169,177.691 227.9,122.485 232.659,117.675C234.714,115.597 234.776,115.614 237.905,114.557Z" style="fill:rgb(31,98,121);"/>
                </g>
                <g transform="matrix(1.485884,0,0,3.448276,-49.034175,-213.793103)">
                    <path d="M110.161,207.528C112.327,208.104 112.322,208.074 112.5,208.15C112.803,208.28 112.976,208.632 113.281,208.756C113.55,208.864 113.897,208.671 114.148,208.816C114.368,208.943 114.52,209.221 114.53,209.475C114.546,209.898 114.257,210.285 114.218,210.707C114.191,211.005 114.339,211.299 114.333,211.599C114.327,211.877 114.302,211.861 113.936,213.227C113.647,214.301 114.153,214.372 114.398,214.664C115.724,216.245 117.388,215.55 117.484,215.544C118.687,215.47 118.646,215.677 119.529,216.458C120.858,217.635 121.728,217.201 123.788,218.253C125.293,219.022 124.969,219.449 125.788,220.162C125.984,220.333 126.302,220.326 126.485,220.512C126.676,220.705 126.69,221.02 126.85,221.239C128.042,222.87 128.254,222.615 130.094,223.914C131.625,224.994 132.096,224.144 133.511,224.882C133.868,225.068 134.145,225.386 134.502,225.572C134.24,226.289 134.116,226.208 133.859,226.915C133.838,226.972 133.689,227.381 133.735,227.674C133.848,228.392 134.313,228.163 138.21,235.581C143.529,245.703 143.203,245.845 150.278,259.655C150.828,260.729 151.1,260.351 152.289,260.345C154.182,257.034 163.065,242.704 164.085,241.249C164.214,241.393 166.146,241.943 166.219,244.557C166.291,247.117 166.076,247.115 166.205,276.569C166.206,276.925 166.269,277.294 166.176,277.637C166.107,277.888 165.699,278.026 165.737,278.284C165.809,278.783 166.39,279.112 166.462,279.611C159.945,278.334 140.291,270.122 136.345,268.989C132.277,267.821 121.421,263.167 117.386,261.82C113.356,260.475 113.554,260.04 113.199,259.948C113.053,259.91 112.895,260.111 112.757,260.049C112.587,259.973 112.566,259.723 112.426,259.601C111.398,258.702 111.351,258.728 110.834,257.451C110.292,256.11 110.016,256.064 110.161,207.528Z" style="fill:rgb(26,84,117);"/>
                </g>
                <g transform="matrix(1.485884,0,0,3.448276,-49.034175,-213.793103)">
                    <path d="M225.513,214.404C214.165,214.89 209.697,213.631 204.203,220.263C203.807,220.742 201.663,223.33 201.128,227.398C200.304,233.652 202.279,235.86 202.537,236.486C202.383,237.013 201.394,236.973 201.24,237.5C201.13,237.872 201.844,238.037 201.975,238.402C202.219,239.081 201.114,239.73 204.066,242.955C206.245,245.336 207.893,246.501 212.412,247.778C214.712,248.427 224.358,248.145 226.238,247.911C227.58,248.743 227.471,248.926 227.486,250.5C227.492,251.166 227.495,251.833 227.503,252.5C227.606,260.499 226.076,260.807 218.403,263.053C217.525,263.309 211.13,265.181 207.519,266.541C205.112,267.447 168.738,279.346 167.505,279.585C167.164,279.651 166.804,279.545 166.462,279.611C166.39,279.112 165.809,278.783 165.737,278.284C165.699,278.026 166.107,277.888 166.176,277.637C166.269,277.294 166.206,276.925 166.205,276.569C166.076,247.115 166.291,247.117 166.219,244.557C166.146,241.943 164.214,241.393 164.085,241.249C165.665,238.546 165.815,238.396 166.501,238.448C167.304,238.508 167.196,238.809 172.1,246.818C176.041,253.255 178.391,257.326 178.924,258.248C179.001,258.382 180.468,260.546 180.47,260.547C180.592,260.599 181.593,261.024 182.087,260.24C182.6,259.426 182.25,259.25 187.478,249.491C187.686,249.102 187.65,249.088 189.758,244.465C190.355,243.157 191.333,242.738 189.99,242.193C189.769,242.104 189.769,242.187 187.164,241.258C195.785,224.176 200.47,216.049 205.998,205.793C208.118,201.861 207.995,200.832 212.438,200.995C222.301,201.356 224.491,200.246 224.839,204.445C225.253,209.432 223.956,209.597 225.513,214.404Z" style="fill:rgb(59,144,156);"/>
                </g>
                <g transform="matrix(1.485884,0,0,3.448276,-49.034175,-213.793103)">
                    <path d="M126.489,198.392C143.953,198.146 163.552,198.35 166.481,198.411C166.441,198.635 166.073,199.016 166.132,200.36C166.301,204.202 166.03,216.051 166.465,216.608C166.669,216.868 167.232,216.553 167.435,216.813C167.333,216.86 166.557,216.566 164.685,218.652C163.363,221.62 153.554,237.121 152.35,239.393C151.295,241.384 150.43,240.542 149.37,238.572C145.032,230.504 135.829,214.927 134.61,212.45C133.823,210.852 133.198,210.591 131.907,208.173C130.352,205.265 130.63,205.154 128.974,202.282C128.788,201.959 128.601,201.544 128.572,201.478C127.691,199.511 126.558,198.493 126.489,198.392Z" style="fill:rgb(72,161,174);"/>
                </g>
                <g transform="matrix(1.485884,0,0,3.448276,-49.034175,-213.793103)">
                    <path d="M237.905,114.557C234.776,115.614 234.714,115.597 232.659,117.675C227.9,122.485 175.169,177.691 174.376,178.34C172.185,180.132 170.55,176.46 165.624,172.31C163.753,170.734 161.778,173.834 157.367,178.344C154.399,181.378 154.52,181.802 149.551,186.597C149.155,186.979 146.751,189.676 146.213,190.189C144.357,191.957 144.404,191.99 144.212,192.1C142.493,193.086 141.504,192.007 141.348,191.838C140.921,191.372 140.405,190.99 140.006,190.5C139.693,190.116 139.54,189.618 139.227,189.235C143.102,185.231 162.732,164.353 163.662,163.784C166.059,162.317 170.795,171.163 173.536,170.658C174.748,170.435 187.96,155.792 198.726,144.735C214.661,128.367 214.834,128.382 214.911,127.557C214.966,126.961 215.021,126.377 210.156,121.788C207.439,119.225 211.409,118.835 212.508,118.528C217.018,117.27 235.503,112.419 236.489,112.319C237.808,112.186 238.054,113.39 238.086,113.548C238.155,113.883 237.837,114.222 237.905,114.557Z" style="fill:rgb(75,165,158);"/>
                </g>
                <g transform="matrix(1.485884,0,0,3.448276,-49.034175,-213.793103)">
                    <path d="M166.481,198.411C179.56,198.168 189.939,198.392 195.501,198.339C198.194,198.314 199.855,198.149 198.629,200.556C197.923,201.94 197.152,202.625 188.128,219.279C186.074,223.068 183.274,227.945 182.844,228.694C182.755,228.85 182.785,228.83 181.806,230.693C181.564,231.154 181.521,231.763 181.121,232.096C180.944,232.243 180.72,231.869 180.511,231.771C178.695,230.922 179.24,230.387 177.288,227.662C171.5,219.582 171.651,218.723 167.435,216.813C167.232,216.553 166.669,216.868 166.465,216.608C166.03,216.051 166.301,204.202 166.132,200.36C166.073,199.016 166.441,198.635 166.481,198.411Z" style="fill:rgb(113,206,198);"/>
                </g>
                <g transform="matrix(1.485884,0,0,3.448276,-49.034175,-213.793103)">
                    <path d="M134.502,225.572C134.707,225.8 135.414,226.082 136.417,227.697C137.379,229.246 137.181,229.355 138.4,230.692C139.056,231.412 140.756,234.03 140.799,234.089C142.587,236.492 142.063,236.788 143.744,239.252C147.146,244.239 146.896,244.391 147.201,244.818C149.046,247.398 149.711,249.357 150.701,250.053C151.939,250.924 151.911,250.034 152.778,248.783C152.971,248.505 154.494,246.307 155.132,245.268C160.48,236.547 160.364,236.496 160.838,235.745C165.13,228.951 164.824,228.664 165.46,228.384C165.921,228.18 166.463,228.21 166.924,228.007C169.23,231.505 174.727,240.704 177.229,244.651C180.674,250.086 180.455,250.62 181.502,250.486C182.379,250.374 182.189,250.032 187.164,241.258C189.769,242.187 189.769,242.104 189.99,242.193C191.333,242.738 190.355,243.157 189.758,244.465C187.65,249.088 187.686,249.102 187.478,249.491C182.25,259.25 182.6,259.426 182.087,260.24C181.593,261.024 180.592,260.599 180.47,260.547C180.468,260.546 179.001,258.382 178.924,258.248C178.391,257.326 176.041,253.255 172.1,246.818C167.196,238.809 167.304,238.508 166.501,238.448C165.815,238.396 165.665,238.546 164.085,241.249C163.065,242.704 154.182,257.034 152.289,260.345C151.1,260.351 150.828,260.729 150.278,259.655C143.203,245.845 143.529,245.703 138.21,235.581C134.313,228.163 133.848,228.392 133.735,227.674C133.689,227.381 133.838,226.972 133.859,226.915C134.116,226.208 134.24,226.289 134.502,225.572Z" style="fill:rgb(18,72,102);"/>
                </g>
                <g transform="matrix(1.485884,0,0,3.448276,-49.034175,-213.793103)">
                    <path d="M225.513,214.404C223.956,209.597 225.253,209.432 224.839,204.445C224.491,200.246 222.301,201.356 212.438,200.995C207.995,200.832 208.118,201.861 205.998,205.793C200.47,216.049 195.785,224.176 187.164,241.258C182.189,250.032 182.379,250.374 181.502,250.486C180.455,250.62 180.674,250.086 177.229,244.651C174.727,240.704 169.23,231.505 166.924,228.007C166.736,227.432 165.93,224.978 166.278,220.471C166.363,219.376 166.52,219.198 167.617,219.323C168.66,219.443 168.013,220.18 174.727,230.358C175.336,231.281 179.443,238.107 179.61,238.448C180.284,239.824 179.943,240.458 181.489,240.437C182.378,240.425 182.625,239.392 185.37,234.424C188.539,228.692 199.276,209.699 199.843,208.67C204.958,199.394 204.977,199.344 205.759,198.868C206.767,198.255 206.855,198.201 220.499,198.26C228.369,198.294 227.601,203.495 227.563,211.5C227.547,214.858 226.196,214.044 225.513,214.404Z" style="fill:rgb(109,201,194);"/>
                </g>
                <g transform="matrix(1.485884,0,0,3.448276,-49.034175,-213.793103)">
                    <path d="M212.228,221.089C212.751,221.46 212.76,222.328 213.283,222.7C213.685,222.985 213.75,222.535 219.448,222.673C232.25,222.981 232.529,222.819 233.5,222.252C233.939,221.995 234.339,221.676 234.778,221.419C235.5,236.775 234.757,237.101 233.566,237.622C231.867,238.366 215.259,238.249 213.433,237.626C206.436,235.236 203.709,225.515 212.228,221.089Z" style="fill:rgb(60,145,156);"/>
                </g>
                <g transform="matrix(1.485884,0,0,3.448276,-49.034175,-213.793103)">
                    <path d="M130.821,185.498C130.815,181.165 130.808,176.833 130.802,172.501C130.789,167.698 130.524,165.323 131.604,164.68C132.572,164.104 146.113,164.385 146.505,164.481C147.916,164.825 147.986,165.57 147.912,172.496C147.88,175.562 146.991,175.588 138.915,183.882C136.265,186.604 135.317,188.088 133.48,188.268C130.318,188.576 130.872,186.17 130.821,185.498Z" style="fill:rgb(40,115,145);"/>
                </g>
                <g transform="matrix(1.485884,0,0,3.448276,-49.034175,-213.793103)">
                    <path d="M176.836,156.496C176.829,155.058 176.757,139.4 176.832,138.518C177.051,135.945 177.902,136.261 180.506,136.291C192.647,136.428 194.157,135.577 194.248,138.515C194.424,144.21 193.987,144.744 192.361,146.362C186.332,152.364 186.366,152.362 180.53,158.53C178.719,160.443 178.609,161.269 177.527,161.267C176.469,161.265 176.751,160.721 176.836,156.496Z" style="fill:rgb(84,191,182);"/>
                </g>
                <g transform="matrix(1.485884,0,0,3.448276,-49.034175,-213.793103)">
                    <path d="M157.621,164.628C156.122,166.158 154.695,168.296 153.707,167.327C153.281,166.91 153.683,165.488 153.58,153.498C153.551,150.037 155.204,150.842 162.495,150.838C168.882,150.834 171.027,150.303 171.166,152.532C171.21,153.247 170.916,153.249 171.36,161.49C171.462,163.37 170.614,164.093 169.368,162.703C165.516,158.406 165.032,158.38 164.511,158.353C163.109,158.281 163.316,158.862 157.621,164.628Z" style="fill:rgb(68,168,176);"/>
                </g>
                <g transform="matrix(1.485884,0,0,3.448276,-49.034175,-213.793103)">
                    <path d="M181.221,185.219C183.116,183.332 189.379,176.826 190.085,176.093C192.035,174.067 192.283,172.778 193.475,172.753C194.611,172.73 194.178,173.388 194.154,179.502C194.125,186.988 194.894,188.572 191.501,188.609C190.619,188.618 182.101,188.712 180.473,188.66C178.552,188.599 178.733,187.502 180.151,186.228C180.151,186.228 181.135,185.3 181.221,185.219Z" style="fill:rgb(34,109,135);"/>
                </g>
                <g transform="matrix(1.485884,0,0,3.448276,-49.034175,-213.793103)">
                    <path d="M202.537,236.486C204.602,239.162 207.583,244.074 217.51,244.086C225.489,244.096 227.206,243.587 227.383,245.521C227.453,246.288 227.372,246.459 227.337,246.532C226.948,247.342 226.627,247.099 226.238,247.911C224.358,248.145 214.712,248.427 212.412,247.778C207.893,246.501 206.245,245.336 204.066,242.955C201.114,239.73 202.219,239.081 201.975,238.402C201.844,238.037 201.13,237.872 201.24,237.5C201.394,236.973 202.383,237.013 202.537,236.486Z" style="fill:rgb(37,110,134);"/>
                </g>
                <g transform="matrix(1.485884,0,0,3.448276,-49.034175,-213.793103)">
                    <path d="M162.057,127.492C162.058,126.033 161.958,119.353 162.055,113.485C162.138,108.422 166.583,109.175 167.134,112.546C167.245,113.224 167.16,127.135 167.14,127.494C166.921,131.479 164.391,131.777 163.266,130.815C161.836,129.591 162.135,128.108 162.057,127.492Z" style="fill:rgb(64,160,150);"/>
                </g>
                <g transform="matrix(1.485884,0,0,3.448276,-49.034175,-213.793103)">
                    <path d="M182.354,126.353C179.299,129.561 177.765,131.403 175.878,130.011C173.56,128.301 176.506,125.065 176.794,124.749C184.547,116.232 185.489,116.373 186.495,116.524C187.032,116.605 189.891,118.134 187.253,121.291C186.892,121.723 186.863,121.692 182.354,126.353Z" style="fill:rgb(78,174,156);"/>
                </g>
                <g transform="matrix(1.485884,0,0,3.448276,-49.034175,-213.793103)">
                    <path d="M134.355,147.674C133.333,146.27 132.864,146.143 133.768,144.682C134.494,143.51 136.243,143.319 136.486,143.293C136.968,143.24 146.025,143.221 146.514,143.251C149.362,143.424 150.371,145.856 149.234,147.276C148.143,148.638 145.159,148.4 144.5,148.402C136.792,148.427 136.68,148.844 134.355,147.674Z" style="fill:rgb(49,126,150);"/>
                </g>
                <g transform="matrix(1.485884,0,0,3.448276,-49.034175,-213.793103)">
                    <path d="M147.508,132.492C147.134,132.101 143.453,128.637 142.963,127.334C142.6,126.369 143.447,124.55 144.398,124.253C146.355,123.644 148.006,125.731 148.635,126.363C153.14,130.888 157.186,133.898 155.208,136.252C152.882,139.02 148.898,133.824 147.508,132.492Z" style="fill:rgb(53,138,148);"/>
                </g>
                <g transform="matrix(1.485884,0,0,3.448276,-49.034175,-213.793103)">
                    <path d="M212.228,221.089C214.642,220.148 214.656,220.093 220.473,220.093C220.777,220.093 230.144,220.13 231.506,220.152C234.302,220.195 234.102,220.822 234.778,221.419C234.339,221.676 233.939,221.995 233.5,222.252C232.529,222.819 232.25,222.981 219.448,222.673C213.75,222.535 213.685,222.985 213.283,222.7C212.76,222.328 212.751,221.46 212.228,221.089Z" style="fill:rgb(113,210,196);"/>
                </g>
                <g transform="matrix(1.485884,0,0,3.448276,-49.034175,-213.793103)">
                    <path d="M214.372,232.922C214.083,232.77 213.754,232.707 213.465,232.555C211.255,231.391 211.388,227.028 213.749,225.963C218.107,223.996 220.639,229.777 218.197,232.171C216.697,233.641 216.441,233.06 214.372,232.922Z" style="fill:rgb(249,251,249);"/>
                </g>
            </g>
        </g>
    </g>
</svg>
